<svg width="265" height="314" viewBox="0 0 265 314" fill="none" xmlns="http://www.w3.org/2000/svg">
<g id="Blob" filter="url(#filter0_f_1_646)">
<path d="M22.8609 58.5222C32.8989 46.0654 42.2643 48.1702 50.957 64.8364C59.6497 81.5026 68.302 93.4289 76.9139 100.615C85.5259 107.801 94.1845 116.486 102.89 126.669C111.595 136.851 120.518 149.562 129.66 164.8C138.802 180.038 142.092 196.134 139.531 213.087C136.97 230.04 131.489 244.504 123.087 256.479C114.686 268.454 103.596 273.661 89.8179 272.098C76.0394 270.536 65.1242 275.151 57.0724 285.943C49.0205 296.736 39.0707 302.039 27.2229 301.852C15.3751 301.666 4.23034 296.845 -6.21141 287.389C-16.6532 277.933 -27.3919 268.24 -38.4276 258.311C-49.4633 248.382 -51.9894 234.438 -46.0057 216.478C-40.0221 198.518 -37.3166 183.79 -37.8892 172.295C-38.4618 160.8 -43.5112 144.358 -53.0375 122.969C-62.5638 101.58 -60.6049 88.3681 -47.1606 83.3331C-33.7164 78.2981 -21.1946 76.0184 -9.5952 76.4939C2.00415 76.9695 12.8228 70.9789 22.8609 58.5222Z" fill="#6BB3F3" fill-opacity="0.15"/>
</g>
<defs>
<filter id="filter0_f_1_646" x="-182.964" y="-73.47" width="447.335" height="499.327" filterUnits="userSpaceOnUse" color-interpolation-filters="sRGB">
<feFlood flood-opacity="0" result="BackgroundImageFix"/>
<feBlend mode="normal" in="SourceGraphic" in2="BackgroundImageFix" result="shape"/>
<feGaussianBlur stdDeviation="62" result="effect1_foregroundBlur_1_646"/>
</filter>
</defs>
</svg>
