<svg width="48" height="56" viewBox="0 0 48 56" fill="none" xmlns="http://www.w3.org/2000/svg">
<g id="Group">
<path id="Vector" d="M5.33311 23.3311H0.666901C0.666901 41.3729 15.2913 56 33.3331 56V51.3331C17.868 51.3331 5.33311 38.7961 5.33311 23.3311Z" fill="#60A5FA"/>
<path id="Vector_2" d="M33.3331 4.66689V0C20.4455 0 10 10.4454 10 23.3311C10 36.2187 20.4455 46.6669 33.3331 46.6669V42C23.0229 42 14.6669 33.642 14.6669 23.3317C14.6669 13.0249 23.0227 4.66689 33.3331 4.66689Z" fill="#60A5FA"/>
<path id="Vector_3" d="M33.3331 9.33313C25.5995 9.33313 19.3331 15.5995 19.3331 23.3311C19.3331 31.0647 25.5995 37.3331 33.3331 37.3331V32.6669C28.1769 32.6669 24 28.4873 24 23.3331C24 18.179 28.1769 14 33.3331 14C38.49 14 42.6669 18.179 42.6669 23.3331L47.3331 23.3311C47.3331 15.5995 41.0674 9.33313 33.3331 9.33313Z" fill="#60A5FA"/>
</g>
</svg>
