<svg width="56" height="56" viewBox="0 0 56 56" fill="none" xmlns="http://www.w3.org/2000/svg">
<g id="Group">
<path id="Vector" d="M31.2998 11.5002L39.5002 3.30189L36.1983 0L28 8.20121L19.7988 0L16.4969 3.29984L37.9008 24.7002L41.1999 21.4011L31.2998 11.5002ZM56 19.7988L52.7002 16.4996L31.2998 37.9008L34.5989 41.1999L44.4969 31.2998L52.6981 39.5002L56 36.1983L47.7988 28L56 19.7988ZM18.1013 31.2998L14.8023 34.5989L24.703 44.4969L16.5018 52.6981L19.8037 56L28.0021 47.7988L36.2033 56L39.5031 52.7002L18.1013 31.2998ZM21.4011 14.798L11.5031 24.7002L3.30189 16.4969L0 19.7988L8.20121 28L0 36.2012L3.29984 39.5002L24.7002 18.0971L21.4011 14.798Z" fill="#9773FA"/>
</g>
</svg>
