<svg width="90" height="41" viewBox="0 0 90 41" fill="none" xmlns="http://www.w3.org/2000/svg">
<g id="apex">
<g id="Layer_1-2">
<g id="Group">
<g id="Group_2">
<path id="Vector" d="M85.387 7.01036H84.5293V6.69934H86.6158V7.01036H85.7545V9.52862H85.387V7.01036Z" fill="#99B0C1"/>
<path id="Vector_2" d="M89.3047 8.28686C89.2843 7.89267 89.2591 7.4177 89.2627 7.0657H89.2507C89.1546 7.39721 89.038 7.74921 88.8951 8.13979L88.3978 9.51163H88.1215L87.6663 8.16511C87.5329 7.76609 87.42 7.40083 87.3407 7.0657H87.3323C87.3239 7.4177 87.3035 7.89267 87.2783 8.31579L87.2026 9.52851H86.8555L87.0525 6.70044H87.5161L87.9966 8.06867C88.1131 8.41705 88.2104 8.72807 88.2813 9.021H88.2933C88.3642 8.7353 88.4651 8.42549 88.59 8.06867L89.0921 6.70044H89.5558L89.7311 9.52851H89.3756L89.3047 8.28686Z" fill="#99B0C1"/>
</g>
<g id="Group_3">
<path id="Vector_3" d="M7.83531 26.6233C7.69116 26.604 4.28698 26.1218 2.25336 24.0303C1.3849 23.137 1.07499 22.5113 1.24316 22.0002C1.46297 21.3264 2.48039 21.2239 3.83653 21.0021C3.04735 24.0315 7.8245 26.4967 7.86774 26.5208L7.83531 26.6245V26.6233Z" fill="#99B0C1"/>
<path id="Vector_4" d="M7.86804 26.2688C7.86804 26.2688 3.17497 23.9374 3.83683 21.0021C1.74675 21.3444 0.421833 21.6832 2.42062 23.7434C4.41941 25.8047 7.86924 26.2688 7.86924 26.2688H7.86804Z" fill="#99B0C1"/>
</g>
<g id="Group_4">
<path id="Vector_5" d="M29.2093 25.2985C24.8586 23.1612 16.2929 19.9064 8.47791 19.9064C5.72838 19.9064 3.28395 20.3633 1.21549 21.2614L0.74823 21.4663L0.901983 20.9805C1.00649 20.649 1.93741 17.7402 2.68816 17.2073L2.70858 17.1929L2.735 17.1832C3.36563 16.9216 4.89475 16.66 6.87432 16.66C11.0208 16.66 19.3151 17.8414 29.2093 25.2985Z" fill="#99B0C1"/>
<path id="Vector_6" d="M1.12518 20.9252C1.12518 20.9252 2.11737 17.7789 2.82247 17.275C4.50534 16.5879 15.6548 15.081 29.2091 25.2987C25.2548 23.3579 10.8152 16.7072 1.12518 20.9252Z" fill="#99B0C1"/>
</g>
<g id="Group_5">
<path id="Vector_7" d="M6.59707 16.0935C5.16044 16.0935 3.85715 16.296 2.73163 16.6986L2.17188 16.8975L2.44935 16.3683C2.57427 16.1272 3.69859 14.0056 4.36646 13.5017C4.53823 13.3703 5.20849 12.9484 6.61989 12.9484C8.9406 12.9484 13.1316 14.149 20.5706 19.5472C20.5706 19.5472 11.4919 16.0947 6.59827 16.0947L6.59707 16.0935Z" fill="#99B0C1"/>
<path id="Vector_8" d="M2.65039 16.3552C2.65039 16.3552 3.85879 14.0527 4.50503 13.5657C5.14767 13.0799 9.17888 11.2765 20.5686 19.5461C16.768 17.9476 8.46898 14.2866 2.65039 16.3552Z" fill="#99B0C1"/>
</g>
<g id="Group_6">
<path id="Vector_9" d="M16.87 16.6783C14.2478 14.5663 9.39138 12.6279 5.82984 12.6279C5.41904 12.6279 5.03946 12.6604 4.68991 12.7243L4.20703 12.8135L4.44487 12.3783C4.58661 12.1276 5.31573 10.8606 5.92594 10.7015C5.9872 10.6882 6.07248 10.6798 6.17699 10.6798C6.22143 10.6798 10.4388 10.7992 16.87 16.6783Z" fill="#99B0C1"/>
<path id="Vector_10" d="M4.64636 12.3722C4.64636 12.3722 5.44035 10.9473 5.98209 10.8075C6.52022 10.6676 10.9382 11.2559 16.8697 16.6782C13.6553 14.0912 8.01451 11.7598 4.64756 12.3722H4.64636Z" fill="#99B0C1"/>
</g>
<g id="Group_7">
<path id="Vector_11" d="M24.1917 20.3077C23.1947 19.7363 22.4079 19.2843 21.423 18.8262L21.2308 18.737L21.0614 18.2018C20.2662 17.6328 18.5761 16.4261 18.5077 16.3767L18.3575 16.2718L18.3131 16.091L16.635 9.04488L15.5335 13.6836L14.9461 13.2364C13.5419 12.1659 12.1305 11.269 10.7492 10.5686L10.4044 10.3938L13.0675 0.00012207H20.2026L25.6127 21.1202L24.1917 20.3077Z" fill="#99B0C1"/>
<path id="Vector_12" d="M21.8299 32.4128L19.6173 23.1173L20.4317 23.3825C22.314 23.9949 24.2407 24.7254 26.1614 25.5536L26.3788 25.6476L28.1146 32.414H21.8299V32.4128Z" fill="#99B0C1"/>
<path id="Vector_13" d="M5.15442 32.4136L8.03488 21.17L8.41086 21.1725C10.0036 21.1845 11.7093 21.3412 13.4787 21.639L13.9856 21.7246L11.4535 32.4148H5.15442V32.4136Z" fill="#99B0C1"/>
</g>
<path id="Vector_14" d="M29.6477 40.9599V10.0753H34.0417L34.6038 11.1988C35.0422 10.848 35.5696 10.5225 36.1786 10.2284C36.9846 9.84385 38.0284 9.64856 39.2825 9.64856C40.3948 9.64856 41.4434 9.86434 42.396 10.2899C43.3605 10.7166 44.2002 11.4158 44.8884 12.3681C45.5587 13.2915 46.086 14.5055 46.4536 15.975C46.8188 17.4155 47.0037 19.1888 47.0037 21.2429C47.0037 23.2971 46.8188 25.0703 46.4536 26.5121C46.0872 27.9768 45.5443 29.1919 44.8404 30.1237C44.1245 31.0725 43.2428 31.7728 42.217 32.202C41.214 32.6215 40.0837 32.8349 38.8596 32.8349C38.0717 32.8349 37.3401 32.7276 36.6867 32.5166C36.3395 32.4021 36.0164 32.2719 35.7185 32.1248V40.9587H29.6465L29.6477 40.9599ZM35.7197 28.2938C35.8915 28.4312 36.1077 28.5554 36.3648 28.6651C36.7047 28.8122 37.1023 28.8821 37.5828 28.8821C38.0633 28.8821 38.4753 28.7772 38.8717 28.5711C39.2596 28.3746 39.59 28.019 39.8891 27.4825C40.2038 26.9172 40.4596 26.1239 40.647 25.1282C40.838 24.0867 40.9353 22.7787 40.9353 21.2417C40.9353 19.7047 40.838 18.398 40.6458 17.3552C40.4584 16.3607 40.2026 15.5687 39.8879 15.0021C39.5888 14.4657 39.2572 14.1101 38.8753 13.916C38.4753 13.7086 38.0416 13.6038 37.5828 13.6038C37.1239 13.6038 36.7335 13.6737 36.45 13.8123C36.1918 13.9377 35.9504 14.0751 35.7209 14.2294V28.2926L35.7197 28.2938Z" fill="#99B0C1"/>
<path id="Vector_15" d="M58.9117 32.8363C57.2156 32.8363 55.7249 32.6278 54.4817 32.2167C53.1952 31.7924 52.1214 31.098 51.2889 30.1529C50.4661 29.2247 49.8439 28.0023 49.4391 26.5208C49.0451 25.0609 48.8457 23.2852 48.8457 21.2419C48.8457 19.1986 49.0379 17.4109 49.4163 15.9691C49.8007 14.4997 50.3592 13.2845 51.0775 12.3563C51.8078 11.4076 52.7292 10.7096 53.815 10.2817C54.8769 9.86095 56.0901 9.64758 57.4198 9.64758C58.7495 9.64758 59.9664 9.86095 61.0246 10.2817C62.1141 10.7108 63.0366 11.4088 63.7645 12.3575C64.478 13.2809 65.0366 14.496 65.4246 15.9691C65.8018 17.4157 65.9927 19.1902 65.9927 21.2419V23.2213H54.9249C54.9766 25.2827 55.3718 26.745 56.0985 27.5732C56.8649 28.4423 58.0985 28.8823 59.7622 28.8823H64.9285V31.843L64.6078 31.9563C63.9303 32.195 63.0799 32.4023 62.0805 32.5723C61.0967 32.7471 60.03 32.8351 58.9117 32.8351V32.8363ZM59.9183 19.2662C59.9027 18.1234 59.827 17.1662 59.6949 16.414C59.5471 15.5846 59.3537 14.9228 59.1195 14.449C58.9129 14.0343 58.6703 13.7535 58.3964 13.616C58.0949 13.4666 57.7658 13.3906 57.4198 13.3906C57.0739 13.3906 56.746 13.4678 56.4384 13.6185C56.1682 13.7547 55.9267 14.0356 55.7225 14.449C55.4835 14.9288 55.2901 15.5894 55.1472 16.414C55.0138 17.1602 54.9382 18.1185 54.9213 19.2674H59.9171L59.9183 19.2662Z" fill="#99B0C1"/>
<path id="Vector_16" d="M78.6184 32.413L75.5253 25.2355L72.4335 32.413H66.0371L71.3728 21.0272L66.2473 10.0753H72.6461L75.5253 16.814L78.401 10.0753H84.801L79.6755 21.0272L85.01 32.413H78.6184Z" fill="#99B0C1"/>
</g>
</g>
</g>
</svg>
