<svg width="116" height="41" viewBox="0 0 116 41" fill="none" xmlns="http://www.w3.org/2000/svg">
<g id="client-04">
<path id="Vector" d="M47.75 30.7964V11.3115H56.2847C62.5296 11.3115 66.2719 14.7966 66.2719 20.9915C66.2719 27.2396 62.3677 30.7964 56.2847 30.7964H47.75ZM52.4707 15.2733V26.8439H55.8846C59.6708 26.8439 61.4356 24.7126 61.4356 21.0008C61.4356 17.1886 59.5852 15.2826 55.8846 15.2826L52.4707 15.2733Z" fill="#99B0C1"/>
<path id="Vector_2" d="M81.783 17.004V25.0294C81.783 28.5399 79.0977 31.0716 75.0246 31.0716C70.9516 31.0716 68.412 28.5399 68.412 25.1289V17.004H72.9291V24.7031C72.9291 26.0569 73.8335 26.9594 75.0246 26.9594C76.3731 26.9594 77.2635 26.0569 77.2635 24.7031V17.004H81.783Z" fill="#99B0C1"/>
<path id="Vector_3" d="M97.0886 29.8522C96.0131 30.4793 94.0471 31.081 91.9377 31.081C86.8308 31.081 83.7754 28.2485 83.7754 23.9072C83.7754 19.5659 86.7822 16.7334 90.8344 16.7334C94.8219 16.7334 98.3653 19.3646 97.3615 25.0642H88.1815C88.4128 26.6702 90.1174 27.2719 91.9678 27.2719C93.8181 27.2719 95.5967 26.8716 96.471 26.4689L97.0886 29.8522ZM93.3324 22.4053C93.3324 21.3524 92.4257 20.3226 90.9061 20.3226C89.2408 20.3226 88.3087 21.276 88.1954 22.4053H93.3324Z" fill="#99B0C1"/>
<path id="Vector_4" d="M105.199 20.6906V25.1546C105.199 27.4872 107.28 27.2859 109.457 26.7583L109.774 30.4447C108.595 30.8478 107.36 31.0595 106.115 31.0718C102.96 31.0718 100.679 29.5676 100.679 25.8812V20.6906H98.4844V17.0042H100.679V12.5889H105.044V17.0042H108.932V20.6906H105.199Z" fill="#99B0C1"/>
<path id="Vector_5" d="M6.24414 33.8806H11.9316L15.1998 10.6075C15.4912 8.52476 17.5127 6.87247 19.7169 6.87247H27.4907C30.4257 6.87247 32.926 7.39778 34.9891 8.37665C32.7988 4.56529 28.5292 2.28125 22.4438 2.28125H14.6724C12.4682 2.28125 10.4444 3.96362 10.1576 6.01625L6.24414 33.8806Z" fill="#99B0C1"/>
<path id="Vector_6" d="M34.9898 8.37695C36.4816 10.9595 37.0228 14.271 36.4862 18.0824C35.1655 27.487 28.2337 33.8809 18.006 33.8809H11.9322L11.2892 38.4467H23.0505C33.2782 38.4467 40.21 32.0759 41.533 22.6458C42.4744 15.9511 40.1175 10.7836 34.9898 8.37695Z" fill="#99B0C1"/>
</g>
</svg>
