<svg width="141" height="41" viewBox="0 0 141 41" fill="none" xmlns="http://www.w3.org/2000/svg">
<g id="fixmyphone" clip-path="url(#clip0_1_498)">
<g id="Layer_1-2">
<path id="Vector" fill-rule="evenodd" clip-rule="evenodd" d="M135.52 14.1656C134.866 14.1656 134.338 14.3658 133.936 14.7162C133.534 15.0666 133.207 15.492 133.006 15.9926C132.804 16.5182 132.679 17.0188 132.628 17.5193H138.16C138.16 16.9937 138.11 16.4932 137.934 15.9676C137.783 15.442 137.506 15.0165 137.129 14.6912C136.752 14.3408 136.224 14.1656 135.545 14.1656M132.654 13.1895C133.508 12.5888 134.514 12.2885 135.721 12.2634C136.903 12.2634 137.858 12.5638 138.587 13.1394C139.316 13.7151 139.844 14.4409 140.171 15.3669C140.523 16.2679 140.699 17.269 140.699 18.3202C140.699 18.5204 140.699 18.7206 140.649 18.9209C140.649 19.0961 140.649 19.2713 140.599 19.4465H132.603C132.603 20.3725 132.83 21.1233 133.182 21.699C133.534 22.2746 133.986 22.7001 134.539 22.9754C135.118 23.2257 135.721 23.3508 136.4 23.3508C137.079 23.3508 137.682 23.3008 138.21 23.1756C138.713 23.0755 139.166 22.9253 139.568 22.7501L139.995 24.6022C139.543 24.8024 138.964 25.0027 138.286 25.1278C137.607 25.2529 136.827 25.328 135.972 25.353C134.715 25.353 133.634 25.0777 132.729 24.5522C131.849 24.0266 131.17 23.3008 130.692 22.3497C130.24 21.3986 129.988 20.2974 129.988 19.021C129.988 17.7446 130.215 16.6183 130.667 15.6172C131.12 14.6161 131.774 13.8152 132.603 13.2145M110.251 14.2907C109.497 14.2907 108.894 14.541 108.441 14.9915C107.988 15.467 107.636 16.0427 107.435 16.7434C107.209 17.4192 107.108 18.145 107.108 18.8708C107.108 19.6967 107.234 20.4476 107.46 21.1233C107.712 21.7991 108.064 22.3497 108.542 22.7752C108.994 23.1756 109.572 23.4009 110.201 23.4009C110.83 23.4009 111.383 23.1756 111.86 22.7752C112.313 22.3747 112.69 21.8241 112.942 21.1233C113.193 20.4225 113.319 19.6717 113.319 18.8208C113.319 18.095 113.243 17.4192 113.017 16.7184C112.816 16.0176 112.464 15.442 112.011 14.9915C111.559 14.541 110.955 14.2907 110.226 14.2907M120.183 14.4409H120.258C120.459 14.0905 120.736 13.7401 121.088 13.4147C121.44 13.0894 121.867 12.8141 122.37 12.6138C122.873 12.3886 123.451 12.2885 124.08 12.2885C124.759 12.2885 125.412 12.4386 126.041 12.764C126.67 13.0894 127.198 13.615 127.6 14.3658C127.927 14.9665 128.128 15.7423 128.228 16.6934C128.228 16.9437 128.254 17.1689 128.254 17.4442V25.1028H125.588V17.7696C125.588 17.1689 125.538 16.6183 125.362 16.1177C125.211 15.6172 124.96 15.2418 124.608 14.9414C124.256 14.6411 123.778 14.4909 123.175 14.4909C122.747 14.4909 122.32 14.6161 121.892 14.8413C121.49 15.0666 121.138 15.417 120.887 15.8675C120.61 16.318 120.484 16.8936 120.459 17.5443V25.1028H117.819V16.0927C117.819 15.3919 117.819 14.7662 117.819 14.2156C117.794 13.64 117.769 13.0894 117.744 12.5638H120.082L120.208 14.4158L120.183 14.4409ZM110.327 12.3135C111.483 12.3135 112.489 12.5888 113.319 13.1394C114.174 13.69 114.852 14.4158 115.305 15.3669C115.758 16.343 116.009 17.4693 116.034 18.7457C116.034 19.922 115.833 20.9231 115.506 21.749C115.154 22.6 114.702 23.2757 114.123 23.8013C113.545 24.3519 112.916 24.7273 112.238 24.9776C111.559 25.2279 110.855 25.353 110.126 25.353C109.019 25.353 108.039 25.0777 107.159 24.5772C106.304 24.0516 105.625 23.3258 105.122 22.3747C104.619 21.3986 104.368 20.2474 104.343 18.8958C104.343 17.4943 104.619 16.2929 105.147 15.2918C105.675 14.3157 106.379 13.5649 107.284 13.0643C108.164 12.5388 109.17 12.2885 110.302 12.2885M90.0365 10.5365C90.3131 11.1872 90.4639 11.888 90.4639 12.6889C90.4639 13.7401 90.2377 14.6411 89.8605 15.3919C89.4834 16.1177 89.0057 16.6934 88.3771 17.1439C87.7485 17.5944 87.0445 17.9198 86.2651 18.12C85.4857 18.3202 84.7062 18.4203 83.9268 18.4203C83.6502 18.4203 83.3737 18.4203 83.1222 18.4203C82.8959 18.4203 82.6445 18.3703 82.4434 18.3202V25.1528H79.8034V7.90859C80.3314 7.80848 80.9599 7.7334 81.6388 7.68334C82.3428 7.60826 83.1474 7.5582 84.0525 7.5582C85.1337 7.5582 86.0639 7.68334 86.8685 7.90859C87.6982 8.13385 88.3519 8.48424 88.8799 8.95977C89.3828 9.38524 89.7851 9.91083 90.0365 10.5365ZM92.2239 6.85742H94.8639V14.2907H94.9142C95.3416 13.64 95.8696 13.1394 96.4982 12.8141C97.1519 12.4887 97.8308 12.3135 98.5348 12.3135C99.1634 12.3135 99.7919 12.4637 100.446 12.789C101.049 13.1144 101.577 13.665 102.004 14.4409C102.407 15.2167 102.608 16.2429 102.633 17.5443V25.1278H99.9679V17.7946C99.9679 17.1939 99.9176 16.6433 99.7668 16.1428C99.6159 15.6422 99.3645 15.2668 99.0125 14.9665C98.6605 14.6661 98.1828 14.516 97.5794 14.516C97.1519 14.516 96.7245 14.6411 96.3222 14.8664C95.9199 15.0916 95.5679 15.417 95.3165 15.8424C95.0399 16.2929 94.9142 16.8436 94.8891 17.4693V25.1278H92.2491V6.85742H92.2239ZM22.3017 15.0165L23.76 12.5137H26.6263L22.6537 18.5705L26.7017 25.0527H23.6846L22.1257 22.3497C21.9246 22.0243 21.7234 21.6739 21.5474 21.3486C21.3714 20.9982 21.1954 20.6478 21.0194 20.2724H20.9691C20.768 20.6228 20.592 20.9732 20.416 21.3236C20.24 21.6739 20.0388 22.0243 19.8377 22.3747L18.3543 25.0527H15.4628L19.536 18.6706L15.6137 12.5137H18.5554L20.0388 15.0165C20.24 15.3669 20.4411 15.7173 20.6423 16.0427C20.8183 16.368 20.9943 16.6934 21.1703 17.0438H21.2206C21.5726 16.343 21.9497 15.6672 22.3017 15.0165ZM11.2137 12.5137H13.8537V25.0527H11.2137V12.5137ZM13.6526 7.93362C13.9291 8.20893 14.08 8.58435 14.08 9.03485C14.08 9.46032 13.9291 9.81071 13.6526 10.111C13.376 10.3864 12.9988 10.5365 12.5211 10.5365C12.0434 10.5365 11.6914 10.3864 11.4148 10.111C11.1383 9.81071 10.9874 9.46032 10.9874 9.03485C10.9874 8.55932 11.1383 8.20893 11.4148 7.93362C11.6914 7.63329 12.0686 7.48312 12.5211 7.48312C12.9737 7.48312 13.3508 7.65832 13.6274 7.93362M2.66514 9.81071V15.1917H8.64914V17.3942H2.66514V25.0277H0V7.60826H9.10171L8.02057 9.83574H2.66514V9.81071ZM86.9188 10.4114C86.2651 9.8858 85.4102 9.61049 84.3291 9.61049C83.9268 9.61049 83.5748 9.61049 83.2479 9.66055C82.9462 9.68557 82.7199 9.7106 82.5439 9.76066V16.1428C82.7199 16.1928 82.9462 16.2179 83.1977 16.2429C83.4239 16.2429 83.7005 16.2429 84.0022 16.2429C85.2091 16.2429 86.1645 15.9426 86.8434 15.3419C87.5222 14.7412 87.8742 13.8652 87.8742 12.739C87.8742 11.6878 87.5222 10.8869 86.8685 10.3363" fill="#99B0C1"/>
<path id="Vector_2" fill-rule="evenodd" clip-rule="evenodd" d="M29.6934 11.788C29.6934 8.5344 30.8499 5.73127 33.1631 3.4287C35.4259 1.20122 38.1162 0.0499372 41.2591 -0.0251465H65.2956C68.4133 0.0499372 71.1036 1.17619 73.3413 3.4287C75.6545 5.73127 76.811 8.50937 76.811 11.788V21.2486C76.811 24.327 75.7802 26.98 73.7185 29.1824C73.5928 29.3076 73.467 29.4327 73.3413 29.5829C73.115 29.7831 72.9139 30.0083 72.7128 30.1835L62.0271 40.5951C61.8511 40.7203 61.6499 40.7703 61.4488 40.7703C61.1722 40.7703 60.9208 40.6702 60.7448 40.47C60.5688 40.2948 60.4682 40.0445 60.4682 39.7692C60.4682 39.6441 60.4933 39.5189 60.5436 39.3938L62.1528 33.0117H41.2591C38.1162 32.9366 35.4259 31.7853 33.1631 29.5578C30.8499 27.2553 29.6934 24.4772 29.6934 21.2235V11.763V11.788ZM48.3745 13.3898C48.1231 14.416 47.8716 15.4671 47.6453 16.5433C47.3939 17.5945 47.1928 18.6457 47.0168 19.6468H46.9413C46.7653 18.6206 46.5642 17.5945 46.3379 16.5433C46.0865 15.4922 45.8351 14.466 45.6088 13.4148L44.2008 7.78356H39.3231L38.1162 25.228H41.6865L41.9882 19.0211C42.0385 18.07 42.0888 17.0189 42.1139 15.8926C42.1642 14.7413 42.2145 13.6151 42.2648 12.5389H42.3402C42.4408 13.2647 42.5665 13.9655 42.7174 14.6913C42.8682 15.4421 43.0191 16.1429 43.1699 16.8186C43.3208 17.5194 43.4716 18.1451 43.6225 18.6957L45.1813 24.9026H48.1985L49.9333 18.6457C50.0842 18.0951 50.2602 17.4694 50.4362 16.7936C50.6122 16.1179 50.8133 15.392 50.9642 14.6662C51.1402 13.9404 51.3162 13.2396 51.4671 12.5138H51.5425C51.5425 13.6651 51.5425 14.7914 51.5676 15.8926C51.6179 17.0189 51.6431 18.045 51.6933 18.971L51.9196 25.178H55.6659L54.6602 7.7335H49.8579L48.3745 13.3648V13.3898ZM64.3402 11.8381C64.1139 12.4388 63.9379 13.0394 63.7619 13.6151C63.5859 14.1657 63.4351 14.7413 63.2842 15.317H63.2339C63.0579 14.7163 62.8819 14.1406 62.7059 13.565C62.5299 12.9894 62.3539 12.4137 62.1276 11.8381L60.6945 7.7335H56.2442L61.0465 18.3203V25.178H65.0191V18.1451L69.9722 7.7335H65.5973L64.3151 11.8131L64.3402 11.8381Z" fill="#99B0C1"/>
</g>
</g>
<defs>
<clipPath id="clip0_1_498">
<rect width="140.674" height="40.96" fill="white"/>
</clipPath>
</defs>
</svg>
