<svg width="147" height="32" viewBox="0 0 147 32" fill="none" xmlns="http://www.w3.org/2000/svg">
<g id="lindholms" clip-path="url(#clip0_1_550)">
<g id="Lager 2">
<path id="Vector" d="M10.1998 26.871H0.0820312V26.0175H1.35649V1.85117H0.0820312V0.997681H5.44901V1.85117H4.17455V26.0175H4.48425C6.87912 26.0175 8.46165 24.8529 9.11834 22.4879C9.3875 21.6344 9.46532 21.2468 9.61936 19.7336H10.5079L10.1998 26.871Z" fill="#99B0C1" stroke="#99B0C1" stroke-width="0.861404" stroke-miterlimit="10"/>
<path id="Vector_2" d="M20.0847 26.0175H21.3592V26.871H15.9922V26.0175H17.2666V1.85117H15.9922V0.997681H21.3592V1.85117H20.0847V26.0175Z" fill="#99B0C1" stroke="#99B0C1" stroke-width="0.861404" stroke-miterlimit="10"/>
<g id="Vector_3">
<path d="M36.6888 26.871L29.5122 4.79927V24.7764C29.5122 25.7846 29.7052 26.0175 30.5159 26.0175H31.0169V26.871H27.0801V26.0175H27.5827C28.3934 26.0175 28.5864 25.7846 28.5864 24.7764V3.0923C28.5864 1.92772 28.5086 1.85117 27.0801 1.85117V0.997681H31.4061L37.6195 20.6637V3.0923C37.6195 1.92772 37.5416 1.85117 36.1131 1.85117V0.997681H40.0905V1.85117C38.6231 1.85117 38.5453 1.92772 38.5453 3.0923V26.8726H36.6888" fill="#99B0C1"/>
<path d="M36.6888 26.871L29.5122 4.79927V24.7764C29.5122 25.7846 29.7052 26.0175 30.5159 26.0175H31.0169V26.871H27.0801V26.0175H27.5827C28.3934 26.0175 28.5864 25.7846 28.5864 24.7764V3.0923C28.5864 1.92772 28.5086 1.85117 27.0801 1.85117V0.997681H31.4061L37.6195 20.6637V3.0923C37.6195 1.92772 37.5416 1.85117 36.1131 1.85117V0.997681H40.0905V1.85117C38.6231 1.85117 38.5453 1.92772 38.5453 3.0923V26.8726H36.6888" stroke="#99B0C1" stroke-width="0.861404" stroke-miterlimit="10"/>
</g>
<path id="Vector_4" d="M50.4349 26.0175C53.3308 26.0175 54.4885 23.7372 54.4885 17.8736V9.22143C54.4885 6.11859 54.0637 4.02234 53.2529 2.97666C52.6352 2.16226 51.7855 1.85117 50.2792 1.85117H49.8933V26.0175H50.4349ZM50.0863 0.997681C52.6352 0.997681 54.2177 1.61825 55.4549 3.01412C56.9596 4.76018 57.6941 7.20336 57.6941 10.5065V16.4353C57.6941 19.3834 57.0374 21.9439 55.7629 23.9994C54.5274 25.9784 52.7892 26.871 50.2419 26.871H45.8008V26.0175H47.0752V1.85117H45.8008V0.997681H50.0863Z" fill="#99B0C1" stroke="#99B0C1" stroke-width="0.861404" stroke-miterlimit="10"/>
<path id="Vector_5" d="M67.7722 13.9531V26.0175H69.0467V26.871H63.6797V26.0175H64.9541V1.85117H63.6797V0.997681H69.0467V1.85117H67.7722V13.0996H71.8664V1.85117H70.5919V0.997681H75.9589V1.85117H74.686V26.0175H75.9589V26.871H70.5919V26.0175H71.8664V13.9531H67.7722Z" fill="#99B0C1" stroke="#99B0C1" stroke-width="0.861404" stroke-miterlimit="10"/>
<g id="Vector_6">
<path d="M85.1103 18.6477C85.1103 24.5114 85.6518 26.2509 87.4273 26.2509C89.1655 26.2509 89.6973 24.5048 89.6973 18.6477V9.22193C89.6973 3.35829 89.1574 1.61874 87.4273 1.61874C85.6437 1.61874 85.1103 3.3648 85.1103 9.22193V18.6477ZM81.9452 10.9664C81.9452 5.22651 84.3385 0.765259 87.4273 0.765259C90.5162 0.765259 92.9094 5.22651 92.9094 10.9664V16.9017C92.9094 22.6431 90.5162 27.1044 87.4257 27.1044C84.3352 27.1044 81.9436 22.604 81.9436 16.9017V10.9664" fill="#99B0C1"/>
<path d="M81.9452 10.9664C81.9452 5.22651 84.3385 0.765259 87.4273 0.765259C90.5162 0.765259 92.9094 5.22651 92.9094 10.9664V16.9017C92.9094 22.6431 90.5162 27.1044 87.4257 27.1044C84.3352 27.1044 81.9436 22.604 81.9436 16.9017V10.9664M85.1103 18.6477C85.1103 24.5114 85.6518 26.2509 87.4273 26.2509C89.1655 26.2509 89.6973 24.5048 89.6973 18.6477V9.22193C89.6973 3.35829 89.1574 1.61874 87.4273 1.61874C85.6437 1.61874 85.1103 3.3648 85.1103 9.22193V18.6477Z" stroke="#99B0C1" stroke-width="0.861404" stroke-miterlimit="10"/>
</g>
<g id="Vector_7">
<path d="M109.014 26.871H98.8965V26.0175H100.171V1.85117H98.8965V0.997681H104.26V1.85117H102.986V26.0175H103.294C105.689 26.0175 107.271 24.8529 107.928 22.4879C108.199 21.6344 108.277 21.2468 108.431 19.7336H109.319L109.009 26.871" fill="#99B0C1"/>
<path d="M109.014 26.871H98.8965V26.0175H100.171V1.85117H98.8965V0.997681H104.26V1.85117H102.986V26.0175H103.294C105.689 26.0175 107.271 24.8529 107.928 22.4879C108.199 21.6344 108.277 21.2468 108.431 19.7336H109.319L109.009 26.871" stroke="#99B0C1" stroke-width="0.861404" stroke-miterlimit="10"/>
</g>
<path id="Vector_8" d="M121.408 26.871L116.93 4.33344V24.7764C116.93 25.7846 117.123 26.0175 117.934 26.0175H118.435V26.871H114.496V26.0175H114.999C115.809 26.0175 116.002 25.7846 116.002 24.7764V1.85117H114.728V0.997681H119.247L122.876 19.9649L126.428 0.997681H130.985V1.85117H129.717V26.0175H130.989V26.871H125.622V26.0175H126.897V4.37253L122.49 26.871H121.408Z" fill="#99B0C1" stroke="#99B0C1" stroke-width="0.861404" stroke-miterlimit="10"/>
<g id="Vector_9">
<path d="M145.312 8.91082H144.424V7.59314C144.424 6.77874 143.882 4.52776 143.535 3.75246C142.84 2.35496 142.068 1.69693 141.025 1.69693C139.597 1.69693 138.708 2.82079 138.708 4.68249C138.708 6.62238 139.287 7.90261 141.064 9.88158C145.388 14.7679 146.277 16.5922 146.277 20.6316C146.277 22.92 145.93 24.3159 145.003 25.5179C144.192 26.5262 143.071 27.1093 141.836 27.1093C140.561 27.1093 139.636 26.6434 138.515 25.4414L137.824 26.8715H137.014V18.0662H137.902V19.5321C137.902 20.8124 138.366 22.8679 138.875 23.837C139.686 25.3893 140.69 26.1646 141.847 26.1646C143.508 26.1646 144.474 24.8078 144.474 22.4412C144.474 19.8807 143.932 18.7552 141.231 15.8071C137.897 12.17 136.852 9.91904 136.852 6.38458C136.852 2.89897 138.473 0.765259 141.142 0.765259C142.222 0.765259 143.071 1.15291 143.845 2.00639L144.385 0.998175H145.157L145.319 8.91082" fill="#99B0C1"/>
<path d="M145.312 8.91082H144.424V7.59314C144.424 6.77874 143.882 4.52776 143.535 3.75246C142.84 2.35496 142.068 1.69693 141.025 1.69693C139.597 1.69693 138.708 2.82079 138.708 4.68249C138.708 6.62238 139.287 7.90261 141.064 9.88158C145.388 14.7679 146.277 16.5922 146.277 20.6316C146.277 22.92 145.93 24.3159 145.003 25.5179C144.192 26.5262 143.071 27.1093 141.836 27.1093C140.561 27.1093 139.636 26.6434 138.515 25.4414L137.824 26.8715H137.014V18.0662H137.902V19.5321C137.902 20.8124 138.366 22.8679 138.875 23.837C139.686 25.3893 140.69 26.1646 141.847 26.1646C143.508 26.1646 144.474 24.8078 144.474 22.4412C144.474 19.8807 143.932 18.7552 141.231 15.8071C137.897 12.17 136.852 9.91904 136.852 6.38458C136.852 2.89897 138.473 0.765259 141.142 0.765259C142.222 0.765259 143.071 1.15291 143.845 2.00639L144.385 0.998175H145.157L145.319 8.91082" stroke="#99B0C1" stroke-width="0.861404" stroke-miterlimit="10"/>
</g>
<path id="Vector_10" d="M46.9767 30.9538H47.0578L46.8616 31.5858H44.7812L44.8072 31.5011H44.8607C44.927 31.5028 44.9926 31.4883 45.052 31.4587C45.0961 31.4384 45.1333 31.4056 45.159 31.3642C45.1936 31.2869 45.2218 31.2068 45.2434 31.1248L45.7298 29.5335C45.7563 29.458 45.7747 29.3799 45.7849 29.3006C45.7849 29.2126 45.7055 29.1703 45.5482 29.1703H45.4752L45.4995 29.0856H47.275L47.2848 29.6491H47.2069C47.1834 29.5312 47.1341 29.4199 47.0626 29.3234C47.0171 29.2609 46.952 29.2156 46.8778 29.1947C46.7506 29.1761 46.622 29.169 46.4935 29.1735H46.1692L45.8449 30.242H46.0249C46.1585 30.2499 46.292 30.2253 46.414 30.1703C46.5289 30.0873 46.6146 29.9698 46.6589 29.8348H46.7432L46.4481 30.8121H46.3638C46.3764 30.7499 46.3829 30.6866 46.3832 30.6231C46.3896 30.551 46.3767 30.4785 46.3459 30.413C46.3241 30.3759 46.2886 30.3489 46.247 30.3381C46.1726 30.3251 46.0971 30.3196 46.0217 30.3218H45.819L45.5855 31.0988C45.5603 31.1713 45.5419 31.246 45.5304 31.3219C45.5284 31.3513 45.5356 31.3806 45.551 31.4057C45.5664 31.4309 45.5892 31.4505 45.6163 31.462C45.7109 31.4953 45.8113 31.5092 45.9114 31.5027H46.0573C46.2601 31.5149 46.4621 31.4686 46.6394 31.3691C46.7882 31.265 46.905 31.1211 46.9767 30.9538Z" fill="#99B0C1"/>
<path id="Vector_11" d="M51.5335 30.748H51.6097C51.6002 30.9658 51.6693 31.1798 51.8043 31.3506C51.8558 31.4077 51.9186 31.4534 51.9887 31.4848C52.0587 31.5162 52.1345 31.5327 52.2113 31.533C52.3375 31.5351 52.4596 31.4878 52.5518 31.4011C52.5977 31.3604 52.6344 31.3102 52.6593 31.254C52.6842 31.1978 52.6967 31.1369 52.6961 31.0753C52.6977 30.9848 52.6754 30.8954 52.6312 30.8164C52.5687 30.7154 52.4916 30.6243 52.4026 30.546C52.2661 30.4255 52.1447 30.2887 52.041 30.1388C51.977 30.0293 51.9445 29.9041 51.947 29.7772C51.9463 29.5862 52.0203 29.4026 52.1529 29.2658C52.2111 29.1968 52.2833 29.1413 52.3647 29.1028C52.4461 29.0643 52.5348 29.0438 52.6247 29.0426C52.7254 29.0419 52.8239 29.0719 52.9073 29.1286C52.9907 29.1853 53.055 29.2661 53.0917 29.3602C53.1434 29.2761 53.1817 29.1843 53.2052 29.0882H53.2798L53.1825 29.8212H53.0998C53.1053 29.6831 53.0815 29.5454 53.0301 29.4172C52.9906 29.3306 52.9298 29.2554 52.8534 29.199C52.7834 29.15 52.7002 29.1239 52.615 29.1241C52.5556 29.1226 52.4968 29.1352 52.4433 29.161C52.3897 29.1868 52.343 29.2249 52.3069 29.2723C52.2314 29.3688 52.1908 29.4883 52.1918 29.6111C52.1895 29.7071 52.2167 29.8015 52.2696 29.8814C52.36 29.9996 52.4616 30.1087 52.5728 30.2072C52.7047 30.3175 52.8148 30.4518 52.8971 30.603C52.9403 30.7022 52.9629 30.8091 52.9636 30.9173C52.9659 31.0149 52.9468 31.1117 52.9076 31.201C52.8683 31.2902 52.8099 31.3697 52.7366 31.4337C52.5997 31.5632 52.4188 31.6354 52.2307 31.6356C52.1152 31.6334 52.0021 31.6024 51.9014 31.5456C51.8007 31.4888 51.7155 31.4078 51.6535 31.3099C51.5971 31.3862 51.5553 31.4724 51.5303 31.564H51.4395L51.5335 30.748Z" fill="#99B0C1"/>
<path id="Vector_12" d="M59.2428 29.243L58.6802 31.1063C58.6549 31.177 58.6369 31.2502 58.6267 31.3246C58.6251 31.3523 58.6318 31.3798 58.646 31.4036C58.6601 31.4274 58.6811 31.4464 58.7061 31.4581C58.7619 31.4866 58.8236 31.5012 58.8861 31.5005H58.951L58.9267 31.5852H57.8598L57.8857 31.5005H57.9408C58.0083 31.5024 58.0754 31.489 58.137 31.4614C58.1843 31.4405 58.2247 31.4066 58.2538 31.3637C58.2925 31.2819 58.324 31.1969 58.3478 31.1096L58.9202 29.2202C58.7175 29.2023 58.544 29.1925 58.4029 29.1925C58.286 29.1878 58.169 29.201 58.0559 29.2316C57.9781 29.2576 57.9408 29.2967 57.9408 29.3489C57.9427 29.3769 57.9493 29.4044 57.9603 29.4303C57.9698 29.4554 57.9758 29.4817 57.9781 29.5085C57.9783 29.5245 57.9752 29.5405 57.9691 29.5553C57.9629 29.5701 57.9539 29.5836 57.9424 29.5948C57.9282 29.6077 57.9115 29.6175 57.8933 29.6236C57.8751 29.6296 57.8559 29.6318 57.8368 29.6299C57.8177 29.6281 57.7993 29.6223 57.7825 29.6129C57.7658 29.6035 57.7513 29.5907 57.7398 29.5753C57.713 29.5396 57.6988 29.4961 57.6992 29.4515C57.7017 29.3981 57.718 29.3464 57.7464 29.3012C57.7748 29.2561 57.8145 29.2192 57.8614 29.1941C58.0427 29.1058 58.2443 29.0681 58.4451 29.085C58.5894 29.085 58.8602 29.1013 59.2558 29.1339C59.5428 29.1583 59.7568 29.1713 59.9044 29.1713C60.0519 29.1713 60.1184 29.1355 60.133 29.0622C60.1476 28.9889 60.1687 28.984 60.2092 28.984C60.2498 28.984 60.2984 29.0166 60.2984 29.0785C60.2984 29.212 60.1573 29.2804 59.8736 29.2804C59.7439 29.2804 59.5331 29.2674 59.2428 29.243Z" fill="#99B0C1"/>
<path id="Vector_13" d="M64.5782 29.0845H64.7582C64.8636 29.0845 64.9901 29.0845 65.1392 29.0764C65.2884 29.0682 65.3808 29.0666 65.4376 29.0666C65.6483 29.0603 65.8572 29.1068 66.0456 29.2018C66.209 29.2891 66.339 29.4283 66.4153 29.5976C66.4968 29.7707 66.5388 29.9599 66.5386 30.1514C66.5368 30.3357 66.5005 30.5181 66.4315 30.6889C66.3659 30.8626 66.2673 31.0219 66.1413 31.158C66.0289 31.2807 65.8933 31.3798 65.7424 31.4495C65.6188 31.5076 65.487 31.5461 65.3517 31.5635C65.1798 31.5803 65.0071 31.5874 64.8344 31.5847H63.834L63.8599 31.5H63.9653C64.0321 31.5018 64.0983 31.4872 64.1583 31.4577C64.2024 31.4374 64.2396 31.4045 64.2653 31.3632C64.2991 31.2855 64.3272 31.2055 64.3496 31.1238L64.836 29.5324C64.8617 29.4567 64.8802 29.3787 64.8912 29.2995C64.8912 29.2116 64.8117 29.1692 64.6528 29.1692H64.5588L64.5782 29.0845ZM65.2754 29.1546L64.682 31.1091C64.6574 31.1793 64.64 31.2519 64.6301 31.3257C64.6301 31.443 64.7566 31.5016 65.0063 31.5016C65.181 31.5082 65.3543 31.4685 65.5089 31.3864C65.6634 31.3044 65.7938 31.1829 65.8867 31.0342C66.0868 30.7392 66.1947 30.391 66.1964 30.0341C66.2065 29.8039 66.1384 29.5771 66.0035 29.3907C65.9326 29.3055 65.8426 29.2384 65.7408 29.195C65.639 29.1517 65.5284 29.1333 65.4181 29.1415C65.3704 29.1431 65.3227 29.1474 65.2754 29.1546Z" fill="#99B0C1"/>
<path id="Vector_14" d="M81.9859 29.1031H82.0881L81.4395 31.2646C81.4213 31.3176 81.4078 31.3721 81.399 31.4274C81.3978 31.4406 81.401 31.4538 81.408 31.465C81.415 31.4762 81.4255 31.4847 81.4379 31.4893C81.4855 31.5016 81.5347 31.5065 81.5838 31.504H81.7103L81.6844 31.5887H80.7715L80.7974 31.504H80.8996C80.9664 31.5119 81.0341 31.5017 81.0958 31.4747C81.1407 31.4076 81.1721 31.3323 81.1882 31.2531L81.6552 29.7107C81.6776 29.6456 81.6939 29.5785 81.7038 29.5103C81.7038 29.4322 81.626 29.3914 81.4719 29.3849H81.3633L81.386 29.3051C81.6779 29.2937 81.8838 29.2286 81.9859 29.1031Z" fill="#99B0C1"/>
<path id="Vector_15" d="M88.0007 30.5086C87.9475 30.5714 87.8818 30.6223 87.8078 30.658C87.7337 30.6936 87.6531 30.7132 87.571 30.7155C87.4928 30.7173 87.4153 30.6995 87.3457 30.6637C87.276 30.6278 87.2164 30.5751 87.1721 30.5103C87.07 30.3684 87.0175 30.1966 87.023 30.0216C87.0182 29.7809 87.1059 29.5476 87.2678 29.3701C87.3353 29.288 87.4197 29.2216 87.5151 29.1752C87.6105 29.1288 87.7147 29.1036 87.8207 29.1014C87.9016 29.0994 87.9818 29.1161 88.0552 29.1503C88.1286 29.1845 88.1932 29.2352 88.2439 29.2984C88.3599 29.4563 88.4172 29.6499 88.406 29.8457C88.4014 30.1526 88.3324 30.4551 88.2034 30.7334C88.1016 30.9931 87.9451 31.2276 87.7445 31.4207C87.5977 31.5597 87.4046 31.6387 87.2029 31.6423C87.0946 31.6503 86.9871 31.6191 86.8997 31.5543C86.8712 31.5328 86.8477 31.5053 86.8306 31.4739C86.8135 31.4424 86.8034 31.4076 86.8008 31.3719C86.8004 31.3548 86.8033 31.3377 86.8094 31.3218C86.8156 31.3058 86.8248 31.2912 86.8365 31.2788C86.8483 31.2664 86.8623 31.2564 86.8779 31.2495C86.8935 31.2425 86.9103 31.2387 86.9273 31.2383C86.9954 31.2383 87.0489 31.2953 87.0894 31.4012C87.0974 31.4432 87.1198 31.481 87.1527 31.5081C87.1856 31.5352 87.2269 31.5498 87.2694 31.5494C87.3551 31.5451 87.4363 31.5098 87.498 31.4501C87.6079 31.3388 87.6969 31.2086 87.7607 31.0657C87.8543 30.8862 87.9345 30.7 88.0007 30.5086ZM87.25 30.3067C87.2478 30.3508 87.2545 30.395 87.2699 30.4364C87.2852 30.4778 87.3088 30.5157 87.3391 30.5477C87.3721 30.5779 87.4108 30.6013 87.4528 30.6164C87.4948 30.6314 87.5394 30.638 87.584 30.6357C87.6801 30.6311 87.773 30.5995 87.8521 30.5445C87.9312 30.4895 87.9934 30.4133 88.0315 30.3246C88.149 30.1173 88.2094 29.8823 88.2066 29.6437C88.2171 29.518 88.1787 29.3931 88.0996 29.2952C88.069 29.2602 88.0314 29.2323 87.9891 29.2131C87.9469 29.194 87.9011 29.1842 87.8548 29.1844C87.7989 29.1872 87.7442 29.2017 87.6942 29.227C87.6443 29.2522 87.6001 29.2876 87.5645 29.331C87.4544 29.4609 87.3761 29.6148 87.3359 29.7806C87.2832 29.9511 87.2542 30.1281 87.25 30.3067Z" fill="#99B0C1"/>
<path id="Vector_16" d="M93.7208 30.206C93.7845 30.2038 93.848 30.215 93.9072 30.2388C93.9663 30.2627 94.0199 30.2986 94.0645 30.3444C94.1106 30.3932 94.1464 30.4508 94.1698 30.5137C94.1932 30.5767 94.2037 30.6438 94.2007 30.7109C94.2001 30.8337 94.1741 30.9549 94.1244 31.0671C94.0747 31.1792 94.0024 31.2798 93.9121 31.3624C93.8261 31.4529 93.7226 31.5248 93.6081 31.5738C93.4935 31.6228 93.3702 31.6479 93.2457 31.6475C93.1157 31.6498 92.9871 31.6202 92.8711 31.5611C92.7609 31.5025 92.709 31.4341 92.709 31.3543C92.709 31.2745 92.7479 31.2256 92.8257 31.2256C92.9036 31.2256 92.9441 31.2745 92.9879 31.3706C93.0083 31.4271 93.0453 31.4761 93.0939 31.5113C93.1424 31.5464 93.2004 31.5661 93.2603 31.5677C93.3796 31.5638 93.4941 31.519 93.5846 31.4406C93.7044 31.3354 93.7939 31.1998 93.844 31.0481C93.9027 30.9068 93.9362 30.7563 93.9429 30.6034C93.9461 30.5199 93.921 30.4378 93.8716 30.3705C93.8492 30.3415 93.8205 30.3181 93.7875 30.3022C93.7546 30.2864 93.7184 30.2785 93.6819 30.2793C93.5769 30.2933 93.4792 30.3407 93.403 30.4145C93.3738 30.4421 93.3381 30.4617 93.2992 30.4715C93.2619 30.4715 93.2441 30.4552 93.2441 30.421C93.2441 30.3868 93.2668 30.3705 93.3154 30.3412C93.364 30.3119 93.4776 30.2467 93.664 30.1474C94.024 29.9519 94.204 29.7369 94.204 29.4958C94.2081 29.4493 94.1999 29.4025 94.1802 29.3602C94.1606 29.3179 94.1302 29.2815 94.0921 29.2548C94.0111 29.2036 93.9169 29.1775 93.8213 29.1799C93.7686 29.1764 93.7157 29.1845 93.6664 29.2036C93.6171 29.2227 93.5726 29.2524 93.5359 29.2906C93.4749 29.3548 93.4402 29.4397 93.4386 29.5284C93.4399 29.5814 93.455 29.633 93.4824 29.6783C93.4885 29.6877 93.4929 29.6982 93.4954 29.7092C93.4954 29.7239 93.4743 29.7483 93.4338 29.7793C93.4092 29.8025 93.379 29.8188 93.3462 29.8265C93.3219 29.8265 93.2959 29.8037 93.27 29.7565C93.2431 29.7065 93.2297 29.6503 93.2311 29.5936C93.2304 29.5245 93.2465 29.4563 93.2782 29.3949C93.3099 29.3336 93.356 29.281 93.4127 29.2418C93.5514 29.144 93.7185 29.0954 93.8878 29.1033C94.0346 29.0949 94.1804 29.1331 94.3045 29.2124C94.3519 29.2422 94.3909 29.2838 94.4176 29.3332C94.4443 29.3826 94.4578 29.438 94.4569 29.4942C94.4539 29.6035 94.4132 29.7083 94.3418 29.7907C94.2017 29.9318 94.0368 30.0456 93.8553 30.1262C93.7986 30.1653 93.7499 30.1848 93.7208 30.206Z" fill="#99B0C1"/>
<path id="Vector_17" d="M100.168 30.5085C100.115 30.5713 100.049 30.6222 99.9754 30.6579C99.9014 30.6935 99.8207 30.7131 99.7386 30.7154C99.6604 30.7174 99.5829 30.6996 99.5132 30.6638C99.4435 30.6279 99.3839 30.5751 99.3398 30.5102C99.2371 30.3685 99.184 30.1967 99.189 30.0215C99.1848 29.7806 99.273 29.5473 99.4354 29.37C99.503 29.2879 99.5873 29.2215 99.6827 29.1751C99.7781 29.1287 99.8824 29.1035 99.9883 29.1013C100.069 29.0991 100.149 29.1159 100.222 29.15C100.295 29.1842 100.36 29.235 100.41 29.2983C100.527 29.4558 100.584 29.6497 100.572 29.8456C100.567 30.1524 100.498 30.4548 100.369 30.7333C100.268 30.993 100.111 31.2275 99.9105 31.4206C99.7637 31.5596 99.5706 31.6386 99.369 31.6422C99.2606 31.6505 99.153 31.6193 99.0657 31.5542C99.0372 31.5327 99.0137 31.5052 98.9966 31.4738C98.9796 31.4423 98.9694 31.4075 98.9668 31.3718C98.9664 31.3547 98.9693 31.3376 98.9755 31.3217C98.9816 31.3057 98.9908 31.2911 99.0025 31.2787C99.0143 31.2663 99.0283 31.2563 99.0439 31.2494C99.0595 31.2424 99.0763 31.2386 99.0933 31.2382C99.1614 31.2382 99.2149 31.2952 99.2555 31.4011C99.2634 31.4431 99.2858 31.4809 99.3187 31.508C99.3516 31.5351 99.3929 31.5497 99.4354 31.5493C99.5211 31.545 99.6023 31.5097 99.6641 31.45C99.7739 31.3387 99.8629 31.2085 99.9267 31.0656C100.021 30.8861 100.102 30.7 100.168 30.5085ZM99.4176 30.3066C99.4154 30.3507 99.4222 30.3949 99.4375 30.4363C99.4528 30.4777 99.4764 30.5156 99.5068 30.5476C99.5398 30.5778 99.5784 30.6011 99.6204 30.6162C99.6625 30.6313 99.707 30.6379 99.7516 30.6356C99.8485 30.6325 99.9425 30.6019 100.023 30.5475C100.103 30.493 100.167 30.4168 100.206 30.3277C100.324 30.1206 100.385 29.8856 100.382 29.6469C100.393 29.5212 100.354 29.3963 100.275 29.2983C100.245 29.2634 100.207 29.2354 100.165 29.2163C100.123 29.1972 100.077 29.1874 100.031 29.1876C99.9746 29.1904 99.92 29.2049 99.87 29.2301C99.82 29.2554 99.7758 29.2908 99.7403 29.3342C99.6295 29.4636 99.5511 29.6177 99.5116 29.7837C99.4564 29.9528 99.4248 30.1288 99.4176 30.3066Z" fill="#99B0C1"/>
</g>
</g>
<defs>
<clipPath id="clip0_1_550">
<rect width="146.356" height="30.96" fill="white" transform="translate(0 0.684204)"/>
</clipPath>
</defs>
</svg>
