<svg width="164" height="43" viewBox="0 0 164 43" fill="none" xmlns="http://www.w3.org/2000/svg">
<g id="Verdant" clip-path="url(#clip0_1_503)">
<g id="Layer_1-2">
<g id="Group">
<path id="Vector" d="M21.461 42.6051C21.3554 42.4669 21.2578 42.3206 21.14 42.1987C19.9044 40.9591 18.673 39.7073 17.4171 38.484C16.3117 37.4069 15.4053 36.1999 14.8363 34.7571C14.8201 34.7124 14.7835 34.6799 14.7307 34.6067H8.23198V28.1202C7.64673 27.8113 7.11838 27.5309 6.59003 27.2505C5.85441 26.8522 5.23664 26.2954 4.64733 25.7182C3.22079 24.3242 1.81863 22.9017 0.404283 21.4915C0.359576 21.4467 0.318934 21.398 0.253906 21.3248C0.36364 21.207 0.46931 21.085 0.579044 20.9753C1.9812 19.5772 3.38336 18.1832 4.78145 16.777C5.6959 15.8544 6.7526 15.1513 7.95155 14.6514C8.0247 14.6189 8.09379 14.5782 8.20759 14.5213V7.98604H14.7104C15.0721 7.31544 15.3606 6.67736 15.7508 6.1043C16.1572 5.5028 16.6246 4.93381 17.1286 4.41359C18.4494 3.05207 19.811 1.72307 21.1521 0.381879C21.2659 0.268081 21.3635 0.133961 21.4732 0.00390625C21.5708 0.072998 21.6317 0.101448 21.6724 0.14209C23.2127 1.67837 24.7571 3.20651 26.2893 4.75498C27.0859 5.5597 27.6874 6.49447 28.1304 7.53491C28.1873 7.66903 28.2523 7.79909 28.3336 7.96978H34.8242C34.9217 8.39653 34.9624 13.0866 34.8852 14.4969C34.9786 14.5498 35.0843 14.6229 35.1981 14.6676C36.3361 15.1391 37.344 15.8056 38.2178 16.6713C39.6444 18.0897 41.0668 19.5122 42.4893 20.9347C42.5909 21.0363 42.6885 21.146 42.8063 21.2679C42.7576 21.337 42.721 21.4102 42.6641 21.463C41.1522 22.979 39.6444 24.503 38.1162 26.0068C37.2627 26.844 36.2711 27.4862 35.1615 27.9373C35.0884 27.9658 35.0193 28.0105 34.9095 28.0633V34.6026C34.3243 34.6433 33.7756 34.6189 33.231 34.623C32.6945 34.627 32.1581 34.623 31.6216 34.623H28.3418C28.2727 34.7571 28.2036 34.8831 28.1467 35.0131C27.659 36.1592 26.9721 37.1712 26.0821 38.0491C24.6758 39.4431 23.2777 40.8453 21.8796 42.2434C21.7658 42.3572 21.6683 42.4832 21.5626 42.6051H21.4651H21.461ZM21.522 3.19839C21.3838 3.32844 21.2659 3.43411 21.1521 3.54791C20.3271 4.37295 19.4899 5.18579 18.677 6.02708C18.3072 6.40912 17.9577 6.81961 17.6488 7.25041C17.3805 7.62432 17.1164 8.01449 16.9985 8.49813C17.9333 8.88423 18.7786 9.376 19.559 9.99783C20.3515 10.6318 20.9245 11.4447 21.5504 12.3307C22.0991 11.4162 22.725 10.6603 23.4728 10.01C24.2369 9.34755 25.1229 8.88423 26.0821 8.48594C26.013 8.31524 25.9642 8.18112 25.8992 8.05513C25.5618 7.38453 25.1391 6.7749 24.6067 6.24655C23.6842 5.3321 22.7697 4.41359 21.8512 3.49914C21.7496 3.39753 21.6399 3.30812 21.5179 3.19839H21.522ZM17.0188 34.1474C17.092 34.3181 17.1408 34.4726 17.2139 34.6108C17.5553 35.261 17.978 35.8503 18.4901 36.3746C19.2704 37.1753 20.067 37.9637 20.8555 38.7563C21.0709 38.9717 21.2863 39.183 21.5057 39.4025C21.6073 39.3171 21.6724 39.2724 21.7293 39.2155C22.7413 38.2076 23.7573 37.2119 24.753 36.1877C25.0782 35.8544 25.3546 35.4642 25.6106 35.0741C25.8016 34.7855 25.9926 34.4807 26.0455 34.1474C25.444 33.8101 24.8587 33.5012 24.2938 33.1598C23.7207 32.8144 23.2127 32.3795 22.7778 31.8796C22.347 31.3838 21.9569 30.8595 21.5423 30.3393C19.7175 32.6843 20.0548 32.4689 17.0188 34.1515V34.1474ZM12.6051 21.2964C10.7355 20.199 9.49189 18.6871 8.73594 16.8176C8.64653 16.8176 8.60995 16.8095 8.5815 16.8176C8.52054 16.8379 8.46364 16.8664 8.40267 16.8948C7.71988 17.2118 7.10619 17.6304 6.57377 18.1629C5.60649 19.122 4.64327 20.0893 3.68005 21.0525C3.5947 21.1379 3.52561 21.2435 3.43213 21.3573C3.99706 21.9182 4.53353 22.4587 5.07814 22.9911C5.69184 23.5927 6.30147 24.1982 6.94362 24.7713C7.45165 25.2265 8.02877 25.5801 8.71156 25.8605C9.47157 23.9178 10.7193 22.41 12.6051 21.2964ZM34.3893 16.7729C34.304 16.9477 34.243 17.0777 34.1739 17.2037C33.9544 17.6182 33.7553 18.045 33.5074 18.4433C32.8571 19.4715 32.0199 20.3169 30.9957 20.9794C30.8453 21.0769 30.634 21.1257 30.573 21.3614C32.3653 22.3937 33.5846 23.9056 34.3649 25.8117C34.5234 25.7548 34.6494 25.7223 34.7592 25.6654C35.4257 25.324 36.0435 24.9054 36.5759 24.373C37.5066 23.4463 38.4373 22.5197 39.3639 21.589C39.4533 21.4996 39.5265 21.398 39.6078 21.3045C39.5712 21.2395 39.5549 21.1907 39.5224 21.1582C38.4332 20.069 37.3521 18.9676 36.2426 17.9027C35.7305 17.411 35.1209 17.033 34.3893 16.7729ZM18.23 21.3045C18.234 23.044 19.6362 24.6006 21.5667 24.5843C23.4322 24.5681 24.8425 23.1659 24.8547 21.3086C24.8628 19.4553 23.4484 18.0084 21.5464 18.0043C19.6159 18.0003 18.2218 19.565 18.23 21.3045ZM32.658 28.5998C31.2477 28.7908 29.9146 28.6323 28.5409 28.299C28.8782 29.6809 29.0571 30.9977 28.862 32.3267C29.3416 32.4364 32.2312 32.4364 32.6539 32.3307V28.5957L32.658 28.5998ZM28.8417 10.2173C29.0814 11.5991 28.8538 12.9241 28.549 14.31C29.9227 13.9117 31.2517 13.8466 32.5807 13.9483C32.7108 13.5378 32.7108 10.6156 32.5889 10.2132H28.8457L28.8417 10.2173ZM14.5071 14.31C14.3852 13.5825 14.2308 12.9363 14.1779 12.286C14.121 11.6154 14.1657 10.9367 14.1657 10.2539C13.8284 10.1604 10.9835 10.1401 10.4795 10.2376C10.3941 10.6766 10.3982 13.5581 10.4917 13.9726C11.8288 13.8182 13.1538 13.932 14.5071 14.314V14.31ZM10.4307 32.3389C11.0891 32.4527 13.8975 32.4242 14.2105 32.3104C14.0682 30.9733 14.1698 29.6524 14.5478 28.2868C13.1659 28.6729 11.8369 28.7502 10.4307 28.6323C10.4226 29.8759 10.4226 31.0993 10.4307 32.3429V32.3389ZM10.9672 26.3848C12.7555 26.7993 15.7305 25.7711 16.8441 24.312C16.5799 23.6983 16.3198 23.0928 16.0637 22.4913C13.7756 22.5969 11.4752 24.6128 10.9672 26.3848ZM32.1377 16.1836C30.0609 15.83 27.342 16.8867 26.2446 18.2726C26.5047 18.8903 26.7567 19.4959 27.0128 20.1056C29.0205 20.0202 31.4346 18.297 32.1418 16.1836H32.1377ZM16.3929 31.8837C18.5145 31.2171 20.3271 28.6973 20.3271 26.7262C19.7093 26.4701 19.0997 26.2222 18.4535 25.958C16.9213 27.6162 16.2019 29.563 16.3929 31.8837ZM26.6145 10.7213C24.5661 11.4366 22.6884 13.9198 22.7697 15.8666C23.3753 16.1185 23.9687 16.3705 24.5702 16.6184C26.1796 15.2935 27.0412 12.1397 26.6145 10.7213ZM26.6388 31.8593C27.1306 30.3311 25.887 26.8359 24.5702 25.9784C23.9565 26.2303 23.359 26.4742 22.7616 26.7221C22.7372 28.7664 24.7083 31.2862 26.6429 31.8593H26.6388ZM20.3434 15.8544C20.2702 13.7735 18.4169 11.3268 16.3929 10.7335C16.206 13.0297 16.9132 14.9846 18.4576 16.6306C19.12 16.3583 19.7297 16.1064 20.3434 15.8544ZM10.9347 16.1511C11.5972 18.1791 13.9788 20.0446 16.0759 20.0893C16.3401 19.4675 16.6002 18.8538 16.8725 18.2116C15.2021 16.6753 13.2472 15.9804 10.9347 16.1511ZM26.2365 24.3364C27.5655 25.8646 30.2804 26.7506 32.1255 26.401C31.5159 24.4096 29.0571 22.5522 26.9965 22.5116C26.7445 23.109 26.4966 23.7024 26.2324 24.3405L26.2365 24.3364Z" fill="#99B0C1"/>
<g id="Group_2">
<path id="Vector_2" d="M164.177 17.3997H160.381V28.9218H158.052C157.987 28.2918 158.032 27.6659 158.023 27.04C158.015 26.3938 158.023 25.7436 158.023 25.0933V17.4241H154.236C154.207 16.66 154.223 15.9406 154.223 15.1562H164.177V17.3956V17.3997Z" fill="#99B0C1"/>
<path id="Vector_3" d="M145.17 15.1925H147.568V28.8808C147.21 29.0149 146.853 28.9336 146.499 28.9499C146.162 28.9621 145.82 28.9499 145.454 28.9499C143.199 25.853 140.947 22.7682 138.696 19.6794L138.606 19.7038V28.8564C138.192 28.9702 136.716 28.9824 136.225 28.8849V15.1803C136.57 15.1763 136.92 15.1681 137.273 15.1641C137.615 15.1641 137.956 15.1641 138.346 15.1641C140.594 18.2529 142.853 21.3539 145.174 24.5443V15.1925H145.17Z" fill="#99B0C1"/>
<path id="Vector_4" d="M100.264 28.922V15.193C100.41 15.1809 100.532 15.1646 100.658 15.1646C102.056 15.1646 103.45 15.1524 104.848 15.1646C106.514 15.1809 108.01 15.697 109.278 16.7862C110.306 17.6682 110.969 18.7899 111.286 20.1026C111.794 22.1957 111.574 24.1912 110.384 26.0242C109.408 27.532 107.99 28.4221 106.242 28.7716C105.641 28.8935 105.019 28.9301 104.405 28.9423C103.202 28.9667 102.003 28.9504 100.8 28.9504C100.625 28.9504 100.455 28.9301 100.264 28.922ZM102.682 26.6542C103.474 26.6542 104.234 26.6785 104.994 26.6501C106.384 26.5973 107.498 25.9836 108.262 24.8293C109.319 23.228 109.384 21.517 108.583 19.7937C108.034 18.6111 107.071 17.8754 105.803 17.5544C105.584 17.4975 105.356 17.4568 105.133 17.4528C104.328 17.4406 103.519 17.4487 102.686 17.4487V26.6542H102.682Z" fill="#99B0C1"/>
<path id="Vector_5" d="M86.2841 28.8603C85.8615 28.9782 84.3577 28.9823 83.8984 28.8766V15.2005C84.0204 15.1883 84.1423 15.1639 84.2683 15.1639C85.6989 15.1639 87.1254 15.1599 88.556 15.1639C89.2632 15.1639 89.9419 15.3062 90.5882 15.5988C91.6652 16.0865 92.4008 16.8831 92.7625 18.017C93.1161 19.1265 93.0795 20.2157 92.6487 21.2968C92.2382 22.3169 91.5026 23.0079 90.4906 23.4143C90.4175 23.4427 90.3362 23.4671 90.259 23.4956C90.1817 23.524 90.1086 23.5525 89.9745 23.6053C90.4987 24.5116 91.0881 25.357 91.6367 26.2227C92.1895 27.0965 92.7544 27.9662 93.3193 28.84C93.0023 28.9741 91.3847 29.0107 90.576 28.9091C89.503 27.2062 88.4138 25.483 87.3327 23.7679H86.2882V28.8603H86.2841ZM86.3045 21.4878C86.91 21.4878 87.4912 21.5 88.0683 21.4838C88.3894 21.4757 88.7186 21.4513 89.0316 21.3781C89.6778 21.2237 90.2061 20.8863 90.4296 20.2279C90.8279 19.0656 90.4053 17.6878 88.7674 17.4968C88.0805 17.4155 87.3774 17.4358 86.6824 17.4155C86.5564 17.4155 86.4345 17.4358 86.3004 17.4521V21.4878H86.3045Z" fill="#99B0C1"/>
<path id="Vector_6" d="M121.954 15.1805H124.389C126.161 19.7325 127.933 24.2844 129.705 28.8363C129.347 28.9705 128.026 29.003 127.323 28.9014C126.917 27.8528 126.498 26.7839 126.075 25.6988H120.267C119.849 26.7758 119.434 27.8447 119.012 28.9217H116.602C118.394 24.3169 120.17 19.7528 121.95 15.1805H121.954ZM123.173 18.1881C122.478 19.9926 121.824 21.6874 121.153 23.435H125.193C124.523 21.6914 123.868 19.9966 123.173 18.1881Z" fill="#99B0C1"/>
<path id="Vector_7" d="M70.6269 23.0162V26.613C71.135 26.7105 71.6349 26.6455 72.1307 26.6577C72.6347 26.6699 73.1386 26.6577 73.6426 26.6577H75.1545C75.6544 26.6577 76.1543 26.6577 76.6908 26.6577C76.7558 27.0601 76.7151 27.4299 76.7233 27.7957C76.7314 28.1493 76.7233 28.5069 76.7233 28.828C76.6745 28.8686 76.6664 28.8808 76.6501 28.889C76.6379 28.8971 76.6257 28.9134 76.6095 28.9174C76.4957 28.9296 76.3859 28.9459 76.2721 28.9459C73.6588 28.9459 71.0456 28.9459 68.4282 28.9418C68.3835 28.9418 68.3388 28.9134 68.2656 28.893V15.1885H76.5688V17.4157H70.631V20.7077C71.2284 20.7321 71.8218 20.7158 72.4152 20.7199C73.0167 20.7199 73.6182 20.7199 74.2156 20.7199H75.9998C76.134 21.0857 76.1543 22.439 76.0324 23.008C75.1423 23.0162 74.24 23.008 73.3378 23.008C72.4477 23.008 71.5576 23.008 70.6188 23.008L70.6269 23.0162Z" fill="#99B0C1"/>
<path id="Vector_8" d="M61.8447 15.1808C59.7882 19.9319 57.7561 24.622 55.6752 29.4259C53.5943 24.6179 51.5622 19.9238 49.5098 15.1808H52.119C53.3179 18.0745 54.5169 20.9561 55.7524 23.927C56.992 20.9764 58.1544 18.0705 59.3574 15.1768H61.8447V15.1808Z" fill="#99B0C1"/>
</g>
</g>
</g>
</g>
<defs>
<clipPath id="clip0_1_503">
<rect width="163.06" height="42.38" fill="white" transform="translate(0.25)"/>
</clipPath>
</defs>
</svg>
