<svg width="56" height="56" viewBox="0 0 56 56" fill="none" xmlns="http://www.w3.org/2000/svg">
<g id="Group">
<path id="Vector" d="M56 16.9169C56 7.57395 48.4261 0 39.0831 0C34.8383 0 30.9687 1.57432 28 4.15666C25.0286 1.57432 21.1617 0 16.9169 0C7.57395 0 0 7.57395 0 16.9169C0 21.1617 1.57432 25.0313 4.15666 28C1.57432 30.9687 0 34.8383 0 39.0831C0 48.4261 7.57395 56 16.9169 56C21.1617 56 25.0286 54.4257 28 51.8433C30.9687 54.4257 34.8383 56 39.0831 56C48.4261 56 56 48.4261 56 39.0831C56 34.8384 54.4258 30.9688 51.8436 28.0003C54.4264 25.0318 56 21.1608 56 16.9169ZM24.9052 48.2908C22.7548 50.162 19.9835 51.3331 16.9169 51.3331C10.1633 51.3331 4.66689 45.8367 4.66689 39.0831C4.66689 32.3295 10.1633 26.8331 16.9169 26.8331C19.9886 26.8331 22.7654 28.0092 24.9193 29.8844C23.1897 32.5339 22.1669 35.6832 22.1669 39.0831C22.1669 42.483 23.1783 45.6414 24.9052 48.2908ZM16.9169 22.1669C13.517 22.1669 10.3586 23.1783 7.70629 24.9052C5.83803 22.7548 4.66689 19.9814 4.66689 16.9169C4.66689 10.1633 10.1633 4.66689 16.9169 4.66689C23.6705 4.66689 29.1669 10.1633 29.1669 16.9169C29.1669 19.9886 27.9908 22.7654 26.1183 24.9193C23.4682 23.1896 20.3168 22.1669 16.9169 22.1669ZM39.0831 51.3331C32.3295 51.3331 26.8331 45.8367 26.8331 39.0831C26.8331 36.0114 28.0092 33.2346 29.8817 31.0807C32.5318 32.8103 35.6832 33.8331 39.0831 33.8331C42.483 33.8331 45.6414 32.8217 48.2937 31.0948C50.162 33.2452 51.3331 36.0186 51.3331 39.0831C51.3331 45.8367 45.8367 51.3331 39.0831 51.3331ZM39.0831 29.1669C36.0114 29.1669 33.2346 27.9908 31.0829 26.1136C32.8104 23.4661 33.8332 20.3168 33.8332 16.9169C33.8332 13.517 32.8218 10.3586 31.097 7.70902C33.2452 5.83789 36.0187 4.66676 39.0832 4.66676C45.8369 4.66676 51.3332 10.1631 51.3332 16.9168C51.3331 23.6705 45.8367 29.1669 39.0831 29.1669Z" fill="#5EEAD4"/>
</g>
</svg>
